<svg xmlns="http://www.w3.org/2000/svg" width="256" height="256" fill="none" viewBox="0 0 256 256" id="meta">
  <rect width="224" height="224" x="16" y="16" fill="url(#paint0_linear_531_13608)" rx="70"></rect>
  <path fill="#0081FB" d="M70.5075 143.258C70.5075 148.858 71.7369 153.158 73.3433 155.758C75.4497 159.165 78.5908 160.608 81.7937 160.608C85.9247 160.608 89.704 159.583 96.9863 149.511C102.821 141.438 109.696 130.105 114.322 123.001L122.156 110.965C127.597 102.606 133.895 93.3141 141.118 87.0153C147.012 81.8743 153.372 79.0186 159.772 79.0186C170.518 79.0186 180.754 85.2457 188.588 96.9249C197.161 109.715 201.323 125.826 201.323 142.452C201.323 152.336 199.375 159.598 196.06 165.336C192.857 170.885 186.614 176.429 176.113 176.429V160.608C185.105 160.608 187.349 152.346 187.349 142.891C187.349 129.417 184.207 114.463 177.287 103.779C172.375 96.2002 166.01 91.5697 159.008 91.5697C151.435 91.5697 145.34 97.2812 138.49 107.467C134.849 112.878 131.111 119.472 126.914 126.913L122.293 135.098C113.011 151.556 110.66 155.304 106.019 161.491C97.884 172.324 90.9385 176.429 81.7937 176.429C70.9464 176.429 64.0862 171.731 59.8383 164.653C56.3701 158.885 54.667 151.316 54.667 142.692L70.5075 143.258Z"></path>
  <path fill="url(#paint1_linear_531_13608)" d="M67.1572 98.0414C74.4201 86.8475 84.9003 79.0186 96.9209 79.0186C103.883 79.0186 110.803 81.0792 118.03 86.9798C125.935 93.4309 134.36 104.054 144.871 121.563L148.641 127.846C157.738 143.003 162.915 150.801 165.944 154.479C169.841 159.201 172.569 160.608 176.114 160.608C185.105 160.608 187.349 152.346 187.349 142.891L201.323 142.452C201.323 152.336 199.375 159.598 196.06 165.336C192.857 170.885 186.615 176.429 176.114 176.429C169.586 176.429 163.803 175.011 157.407 168.978C152.491 164.347 146.743 156.121 142.321 148.725L129.168 126.754C122.569 115.728 116.515 107.508 113.012 103.784C109.243 99.7807 104.398 94.9456 96.6665 94.9456C90.409 94.9456 85.0945 99.3373 80.6473 106.054L67.1572 98.0414Z"></path>
  <path fill="url(#paint2_linear_531_13608)" d="M96.6655 94.9456C90.408 94.9456 85.0935 99.3373 80.6463 106.054C74.3584 115.545 70.5075 129.682 70.5075 143.258C70.5075 148.858 71.7369 153.158 73.3433 155.758L59.8383 164.653C56.3701 158.885 54.667 151.316 54.667 142.692C54.667 127.009 58.9716 110.664 67.1568 98.0414C74.4197 86.8475 84.8998 79.0186 96.9205 79.0186L96.6655 94.9456Z"></path>
  <defs>
    <linearGradient id="paint0_linear_531_13608" x1="16" x2="208" y1="16" y2="240" gradientUnits="userSpaceOnUse">
      <stop stop-color="#fff"></stop>
      <stop offset="1" stop-color="#ACCCFF"></stop>
    </linearGradient>
    <linearGradient id="paint1_linear_531_13608" x1="188" x2="94.667" y1="141.333" y2="108" gradientUnits="userSpaceOnUse">
      <stop stop-color="#0082FB"></stop>
      <stop offset=".17" stop-color="#0073EE"></stop>
      <stop offset=".6" stop-color="#0064E1"></stop>
      <stop offset="1" stop-color="#0064E1"></stop>
    </linearGradient>
    <linearGradient id="paint2_linear_531_13608" x1="75.794" x2="75.794" y1="94.666" y2="154.666" gradientUnits="userSpaceOnUse">
      <stop stop-color="#0064E0"></stop>
      <stop offset="1" stop-color="#0082FB"></stop>
    </linearGradient>
  </defs>
</svg>
